<svg width="40" height="40" viewBox="0 0 40 40" fill="none" xmlns="http://www.w3.org/2000/svg">
<g id="cloudy night">
<g id="21-moon">
<g id="gradient">
<path id="Vector" d="M20.2046 5.94253C19.9927 5.04441 19.4814 4.24516 18.7549 3.67629C18.0283 3.10742 17.1297 2.80282 16.207 2.81261C15.2843 2.82239 14.3924 3.14598 13.678 3.73013C12.9637 4.31427 12.4695 5.12418 12.2767 6.0266C11.2948 6.23575 10.4251 6.80108 9.83536 7.61355C9.24562 8.42602 8.97761 9.42808 9.08301 10.4265C9.18841 11.4249 9.65976 12.3489 10.4062 13.0203C11.1526 13.6917 12.1211 14.063 13.1251 14.0625H20.0001C21.06 14.0628 22.0782 13.6489 22.8372 12.909C23.5963 12.1691 24.0361 11.1619 24.0627 10.1023C24.0894 9.04261 23.7009 8.01449 22.9801 7.23733C22.2593 6.46017 21.2632 5.99552 20.2046 5.94253Z" fill="url(#paint0_linear_36_3448)"/>
<path id="Vector_2" d="M31.7007 22.8561C31.5556 22.7636 31.3878 22.713 31.2157 22.7096C31.0437 22.7062 30.874 22.7502 30.7253 22.8368C29.0033 23.8366 27.0001 24.2416 25.025 23.9892C23.0498 23.7369 21.2128 22.8411 19.7975 21.4405C18.3823 20.0398 17.4676 18.2121 17.1948 16.2397C16.9221 14.2673 17.3063 12.2599 18.2883 10.5277C18.3733 10.3781 18.4156 10.208 18.4104 10.036C18.4052 9.86399 18.3527 9.69674 18.2588 9.55256C18.1649 9.40837 18.033 9.29283 17.8778 9.21858C17.7226 9.14434 17.5499 9.11425 17.3787 9.13162C14.0696 9.47144 11.0041 11.0264 8.77528 13.4958C6.54644 15.9652 5.31262 19.1734 5.3125 22.4999C5.3125 29.9094 11.3405 35.9374 18.75 35.9374C22.1005 35.9372 25.3301 34.6854 27.8055 32.4274C30.2809 30.1694 31.8234 27.0682 32.1308 23.7318C32.1464 23.5604 32.1145 23.388 32.0386 23.2336C31.9628 23.0791 31.8459 22.9485 31.7007 22.8561Z" fill="url(#paint1_linear_36_3448)"/>
<path id="Vector_3" d="M35.8295 12.8175C35.6176 11.9194 35.1063 11.1202 34.3797 10.5513C33.6532 9.98242 32.7546 9.67782 31.8319 9.68761C30.9092 9.69739 30.0173 10.021 29.3029 10.6051C28.5886 11.1893 28.0944 11.9992 27.9016 12.9016C26.9197 13.1108 26.05 13.6761 25.4602 14.4885C24.8705 15.301 24.6025 16.3031 24.7079 17.3015C24.8133 18.2999 25.2846 19.2239 26.031 19.8953C26.7774 20.5667 27.746 20.938 28.7499 20.9375H35.6249C36.6849 20.9378 37.7031 20.5239 38.4621 19.784C39.2211 19.0441 39.6609 18.0369 39.6876 16.9773C39.7143 15.9176 39.3258 14.8895 38.605 14.1123C37.8842 13.3352 36.8881 12.8705 35.8295 12.8175Z" fill="url(#paint2_linear_36_3448)"/>
<path id="Vector_4" d="M20.5291 26.5184C20.4578 26.5184 20.3862 26.5196 20.3144 26.522C20.204 22.9077 17.1148 19.9999 13.3333 19.9999C9.55185 19.9999 6.46265 22.9077 6.35227 26.522C6.28058 26.5196 6.20889 26.5184 6.13757 26.5184C4.50978 26.5184 2.94867 27.1408 1.79765 28.2486C0.646635 29.3565 0 30.8591 0 32.4258C0 33.9925 0.646635 35.4951 1.79765 36.603C2.94867 37.7108 4.50978 38.3332 6.13757 38.3332H20.5291C22.1569 38.3332 23.718 37.7108 24.869 36.603C26.02 35.4951 26.6667 33.9925 26.6667 32.4258C26.6667 30.8591 26.02 29.3565 24.869 28.2486C23.718 27.1408 22.1569 26.5184 20.5291 26.5184Z" fill="url(#paint3_linear_36_3448)"/>
</g>
</g>
</g>
<defs>
<linearGradient id="paint0_linear_36_3448" x1="11.9725" y1="14.59" x2="21.1525" y2="5.40996" gradientUnits="userSpaceOnUse">
<stop offset="0.015" stop-color="#8C84BC"/>
<stop offset="1" stop-color="#DBDFEC"/>
</linearGradient>
<linearGradient id="paint1_linear_36_3448" x1="9.25258" y1="31.997" x2="25.0629" y2="16.1867" gradientUnits="userSpaceOnUse">
<stop offset="0.015" stop-color="#F9CD55"/>
<stop offset="1" stop-color="#FED3B2"/>
</linearGradient>
<linearGradient id="paint2_linear_36_3448" x1="27.5974" y1="21.465" x2="36.7774" y2="12.285" gradientUnits="userSpaceOnUse">
<stop offset="0.015" stop-color="#8C84BC"/>
<stop offset="1" stop-color="#DBDFEC"/>
</linearGradient>
<linearGradient id="paint3_linear_36_3448" x1="5.39757" y1="40.064" x2="20.6628" y2="24.204" gradientUnits="userSpaceOnUse">
<stop offset="0.015" stop-color="#B7BFD8"/>
<stop offset="1" stop-color="#E4F2EE"/>
</linearGradient>
</defs>
</svg>
