<svg width="18" height="18" viewBox="0 0 18 18" fill="none" xmlns="http://www.w3.org/2000/svg">
<g clip-path="url(#clip0_36_1315)">
<path d="M9.00005 10.7C9.93893 10.7 10.7 9.93893 10.7 9.00005C10.7 8.06116 9.93893 7.30005 9.00005 7.30005C8.06116 7.30005 7.30005 8.06116 7.30005 9.00005C7.30005 9.93893 8.06116 10.7 9.00005 10.7Z" fill="white"/>
<path d="M17.5 8.50195H15.4557C15.2131 5.32803 12.672 2.78693 9.49805 2.54435V0.5H8.50195V2.54435C5.32803 2.78693 2.78693 5.32803 2.54435 8.50195H0.5V9.49805H2.54435C2.78693 12.672 5.32803 15.2131 8.50195 15.4557V17.5H9.49805V15.4557C12.672 15.2131 15.2131 12.672 15.4557 9.49805H17.5V8.50195ZM9 14.4785C5.97915 14.4785 3.52148 12.0209 3.52148 9C3.52148 5.97915 5.97915 3.52148 9 3.52148C12.0209 3.52148 14.4785 5.97915 14.4785 9C14.4785 12.0209 12.0209 14.4785 9 14.4785Z" fill="white"/>
</g>
<defs>
<clipPath id="clip0_36_1315">
<rect width="17" height="17" fill="white" transform="translate(0.5 0.5)"/>
</clipPath>
</defs>
</svg>
