<svg width="29" height="29" viewBox="0 0 29 29" fill="none" xmlns="http://www.w3.org/2000/svg">
<g opacity="0.5">
<path fill-rule="evenodd" clip-rule="evenodd" d="M14.5 28.5C22.232 28.5 28.5 22.232 28.5 14.5C28.5 6.76801 22.232 0.5 14.5 0.5C6.76801 0.5 0.5 6.76801 0.5 14.5C0.5 22.232 6.76801 28.5 14.5 28.5ZM14.6693 17.04C13.9624 17.04 13.3893 16.4669 13.3893 15.76V7.74C13.3893 7.03308 13.9624 6.46 14.6693 6.46C15.3762 6.46 15.9493 7.03308 15.9493 7.74V15.76C15.9493 16.4669 15.3762 17.04 14.6693 17.04ZM14.6693 21.76C14.256 21.76 13.9226 21.6267 13.6693 21.36C13.416 21.1067 13.2893 20.78 13.2893 20.38C13.2893 19.98 13.416 19.6467 13.6693 19.38C13.9226 19.1133 14.256 18.98 14.6693 18.98C15.0693 18.98 15.4026 19.1133 15.6693 19.38C15.9226 19.6467 16.0493 19.98 16.0493 20.38C16.0493 20.78 15.9226 21.1067 15.6693 21.36C15.4026 21.6267 15.0693 21.76 14.6693 21.76Z" fill="#C4C4D5"/>
</g>
</svg>
