<svg width="134" height="40" viewBox="0 0 134 40" fill="none" xmlns="http://www.w3.org/2000/svg">
<g clip-path="url(#clip0_31_2164)">
<path fill-rule="evenodd" clip-rule="evenodd" d="M113.863 1.86194L119.768 8.76048C120.243 9.30964 120.912 9.56591 121.633 9.46131L130.663 8.1747C131.474 8.05964 132.233 8.3996 132.681 9.07951C133.129 9.75943 133.139 10.5858 132.712 11.2762L127.929 18.9854C127.544 19.6025 127.513 20.3138 127.834 20.9624L131.854 29.09C132.217 29.8222 132.122 30.6381 131.611 31.2762C131.1 31.909 130.31 32.1757 129.515 31.9822L120.648 29.8483C119.937 29.6757 119.247 29.864 118.725 30.3714L112.182 36.6789C111.592 37.2437 110.781 37.4111 110.017 37.1234C109.253 36.8358 108.752 36.1768 108.689 35.3661L107.994 26.3337C107.936 25.6119 107.546 25.0157 106.903 24.681L98.8376 20.4498C98.1159 20.068 97.6997 19.3515 97.7418 18.5408C97.7787 17.7301 98.2581 17.0555 99.0167 16.7469L107.451 13.3002C108.126 13.023 108.573 12.4686 108.7 11.7573L110.259 2.83474C110.401 2.03453 110.96 1.42261 111.75 1.20817C112.54 0.993739 113.336 1.23956 113.863 1.85671V1.86194Z" fill="#ECB72B"/>
<path d="M98.4847 0.0313808V0L27.2211 8.31067C28.5592 10.7741 30.5 14.7751 30.5 20C30.5 25.2249 28.5855 30.2458 27.2738 32.7301L98.4847 40V39.9843C100.65 39.9215 102.399 31.0042 102.399 20.0052C102.399 9.00627 100.65 0.0941423 98.4847 0.0313808Z" fill="white"/>
<path d="M13.4925 20.1778C13.4925 23.1972 12.7282 25.9071 11.5191 27.846C10.3054 29.7921 8.69305 30.8964 6.99623 30.8964C5.29941 30.8964 3.68707 29.7921 2.47341 27.846C1.26423 25.9071 0.5 23.1972 0.5 20.1778C0.5 17.1584 1.26423 14.4486 2.47341 12.5096C3.68707 10.5635 5.29941 9.4592 6.99623 9.4592C8.69305 9.4592 10.3054 10.5635 11.5191 12.5096C12.7282 14.4486 13.4925 17.1584 13.4925 20.1778Z" fill="white" stroke="#EAEAEA"/>
<path d="M24.5822 20.2824C24.5822 23.3019 23.818 26.0117 22.6088 27.9506C21.3951 29.8968 19.7828 31.0011 18.086 31.0011C16.3891 31.0011 14.7768 29.8968 13.5631 27.9506C12.354 26.0117 11.5897 23.3019 11.5897 20.2824C11.5897 17.263 12.354 14.5532 13.5631 12.6143C14.7768 10.6681 16.3891 9.56381 18.086 9.56381C19.7828 9.56381 21.3951 10.6681 22.6088 12.6142C23.818 14.5532 24.5822 17.263 24.5822 20.2824Z" fill="white" stroke="#EAEAEA"/>
<path d="M20.4988 27.4529C22.9893 27.4529 25.0084 24.2145 25.0084 20.2197C25.0084 16.2248 22.9893 12.9864 20.4988 12.9864C18.0082 12.9864 15.9891 16.2248 15.9891 20.2197C15.9891 24.2145 18.0082 27.4529 20.4988 27.4529Z" fill="black"/>
<path d="M9.99387 27.2123C12.4845 27.2123 14.5035 23.9739 14.5035 19.9791C14.5035 15.9843 12.4845 12.7458 9.99387 12.7458C7.50328 12.7458 5.48425 15.9843 5.48425 19.9791C5.48425 23.9739 7.50328 27.2123 9.99387 27.2123Z" fill="black"/>
<path d="M46.3665 31.2709C43.8852 31.6841 40.5293 31.4958 37.6686 30.5544C36.046 30.0209 33.3961 28.5199 32 27.1496C33.7174 25.8682 34.5604 25.2092 36.2304 23.8494C39.5705 25.8421 42.1572 26.841 44.1222 26.5167C45.9187 26.2186 46.356 24.4718 44.8809 23.5983C43.1845 22.5889 41.4038 22.2124 38.3798 20.8577C34.0757 18.9331 32.9483 16.0931 34.2074 13.7291C35.5771 11.1716 38.6643 9.48222 42.5418 9.1998C46.3876 8.9226 49.7435 9.91109 52.1352 11.9142C50.6865 13.5565 49.9437 14.3567 48.4264 15.9257C46.6984 14.7333 44.1486 13.9697 42.5102 14.0377C41.5566 14.0743 40.6663 14.5659 40.7137 15.4916C40.7611 16.3912 42.1572 17.0973 45.845 18.5303C50.4389 20.3138 52.2195 22.2542 52.504 24.4875C52.9149 27.6935 50.7339 30.5439 46.3665 31.2709Z" fill="#04041B"/>
<path d="M74.5569 12.9707C69.2202 13.1799 66.5544 13.2897 61.2177 13.499C61.3283 15.2249 61.3652 16.0879 61.4074 17.8086C66.4912 17.7197 69.0305 17.6778 74.1091 17.5889C74.1618 19.7176 74.1618 20.7793 74.1091 22.9079C69.0253 22.8347 66.486 22.8033 61.4021 22.7301C61.36 24.4822 61.3231 25.3556 61.2124 27.1077C64.4472 27.2333 66.0645 27.3013 69.2992 27.4268C71.7911 27.5261 73.1292 27.4111 74.7466 27.2594C74.6149 29.3933 74.5253 30.4602 74.2935 32.5941C72.7552 32.8713 69.9893 32.7824 68.0454 32.6464C62.7508 32.2803 60.1061 32.0973 54.8115 31.7364C55.449 23.9958 55.4437 16.6109 54.8115 8.87029C61.2335 8.42573 67.6502 7.9864 74.0722 7.54184C74.3146 9.71234 74.4147 10.8002 74.5516 12.9707H74.5569Z" fill="#04041B"/>
<path d="M97.1418 12.0764C91.8051 12.2856 89.1394 12.3954 83.8026 12.6046C83.9291 14.5555 83.9712 15.5283 84.0186 17.4791C89.1025 17.3902 91.6418 17.3483 96.7204 17.2542C96.7783 19.6391 96.7783 20.8368 96.7204 23.2218C91.6365 23.1486 89.0972 23.1172 84.0134 23.0439C83.9659 25.0262 83.9238 26.0147 83.7974 27.9916C87.0321 28.1172 88.6494 28.1852 91.8841 28.3107C94.376 28.4101 95.7194 28.2741 97.3368 28.1015C97.1892 30.4969 97.0891 31.6946 96.831 34.0795C95.2874 34.4038 92.5163 34.3253 90.5776 34.1946C85.283 33.8285 82.6383 33.6454 77.3438 33.2845C78.2552 24.681 78.3763 15.9205 77.3438 7.31173L96.6045 5.98328C96.8784 8.41528 96.989 9.6339 97.1418 12.0764Z" fill="#04041B"/>
</g>
<defs>
<clipPath id="clip0_31_2164">
<rect width="133.023" height="40" fill="white"/>
</clipPath>
</defs>
</svg>
