<svg width="12" height="13" viewBox="0 0 12 13" fill="none" xmlns="http://www.w3.org/2000/svg">
<path fill-rule="evenodd" clip-rule="evenodd" d="M5.48336 0.742414L7.49176 3.03368C7.65301 3.21607 7.88055 3.30119 8.126 3.26645L11.1968 2.83912C11.4727 2.8009 11.7307 2.91381 11.883 3.13964C12.0353 3.36547 12.0389 3.63993 11.8938 3.86923L10.267 6.42974C10.1362 6.63473 10.1254 6.87097 10.2347 7.08638L11.6017 9.78586C11.7254 10.0291 11.6931 10.3 11.5193 10.512C11.3455 10.7222 11.0768 10.8108 10.8063 10.7465L7.79097 10.0377C7.5491 9.98042 7.31439 10.043 7.13702 10.2115L4.91183 12.3064C4.71117 12.494 4.43526 12.5496 4.17547 12.4541C3.91569 12.3585 3.74548 12.1397 3.72398 11.8704L3.48749 8.8704C3.46778 8.63068 3.3352 8.43264 3.11662 8.32147L0.373651 6.91614C0.128199 6.78933 -0.0133394 6.55134 0.000993588 6.28209C0.0135349 6.01284 0.176572 5.78875 0.434566 5.68626L3.30295 4.5415C3.53228 4.44943 3.68457 4.26529 3.72757 4.02905L4.25789 1.06552C4.30626 0.799739 4.49617 0.596496 4.76492 0.525274C5.03366 0.454052 5.3042 0.535696 5.48336 0.740677V0.742414Z" fill="#ECB72B"/>
</svg>
